<?xml version="1.0" encoding="UTF-8" standalone="no"?>
<!-- Generator: Adobe Illustrator 16.0.0, SVG Export Plug-In . SVG Version: 6.00 Build 0)  -->

<svg
   version="1.1"
   id="Layer_1"
   x="0px"
   y="0px"
   width="163.28236"
   height="142.83658"
   viewBox="0 0 163.28236 142.83658"
   xml:space="preserve"
   xmlns="http://www.w3.org/2000/svg"
   xmlns:svg="http://www.w3.org/2000/svg"><defs
   id="defs32" />
<g
   id="g32"
   transform="translate(-169.07632,-198.11108)">
	<g
   id="g1">
		<polygon
   style="fill:none;stroke:#000000;stroke-miterlimit:10"
   points="238.465,224.76 236.927,224.427 235.402,224.062 233.834,224.04 232.269,223.871 230.737,224.202 229.157,224.057 227.621,224.336 226.126,224.79 224.733,225.544 223.112,225.599 221.714,226.303 220.39,227.139 218.932,227.698 217.674,228.62 216.229,229.252 214.935,230.13 214.044,231.49 212.642,232.249 211.703,233.502 210.775,234.742 209.536,235.733 208.517,236.921 207.879,238.366 207.119,239.719 206.361,241.072 205.726,242.487 205.109,243.91 204.37,245.296 204.248,246.891 203.781,248.366 203.111,249.806 203.208,251.415 202.842,252.94 202.567,254.483 201.864,255.929 201.785,257.516 201.377,259.027 200.751,260.481 200.455,262.026 199.865,263.484 199.354,264.961 199.016,266.499 198.22,267.864 198.031,269.475 197.224,270.829 196.667,272.297 195.876,273.649 195.032,274.968 194.102,276.221 193.304,277.605 192.045,278.552 191.02,279.737 189.792,280.722 188.776,281.921 187.325,282.687 186.5,284.074 185.429,285.217 184.42,286.42 183.177,287.406 181.954,288.421 181.067,289.733 179.945,290.844 179.059,292.149 178.193,293.466 177.016,294.544 176.127,295.846 175.238,297.145 174.646,298.635 173.579,299.817 172.963,301.277 172.062,302.577 171.623,304.101 170.926,305.503 170.334,306.958 169.828,308.459 169.578,309.999 169.643,311.565 169.703,313.112 169.731,314.66 169.855,316.209 170.261,317.708 170.867,319.136 171.049,320.723 171.975,322.008 172.649,323.401 173.329,324.814 174.465,325.902 175.32,327.213 176.594,328.129 177.846,329.029 178.88,330.236 180.272,330.938 181.795,331.244 183.207,331.948 184.709,332.35 186.234,332.678 187.733,333.088 189.114,333.899 190.677,334.103 192.117,334.731 193.626,335.115 195.195,335.27 196.616,336 198.169,336.202 199.679,336.579 201.187,336.965 202.74,337.143 204.207,337.746 205.758,337.93 207.325,338.015 208.83,338.454 210.373,338.67 211.945,338.687 213.467,339.038 215,339.334 216.542,339.564 218.103,339.637 219.653,339.788 221.21,339.858 222.744,340.237 224.318,340.042 225.858,340.289 227.419,340.107 228.962,340.44 230.518,340.411 232.073,340.216 233.626,340.152 235.184,340.404 236.742,340.447 238.296,340.298 239.843,340.044 241.417,340.301 242.947,339.82 244.505,339.773 246.087,339.945 247.62,339.587 249.156,339.301 250.717,339.218 252.228,338.763 253.818,338.892 255.329,338.475 256.877,338.289 258.382,337.855 259.973,337.861 261.492,337.492 263.016,337.148 264.521,336.725 265.984,336.152 267.596,336.153 269.088,335.676 270.598,335.278 271.981,334.44 273.556,334.247 275.039,333.71 276.475,333.03 278.039,332.743 279.597,332.425 281.095,331.927 282.545,331.294 283.907,330.423 285.469,330.103 286.941,329.538 288.354,328.822 289.96,328.591 291.348,327.815 292.839,327.294 294.31,326.713 295.705,325.965 297.103,325.234 298.562,324.633 299.888,323.763 301.273,323.015 302.708,322.359 304.159,321.728 305.573,321.019 306.953,320.248 308.167,319.214 309.49,318.358 310.841,317.542 312.209,316.741 313.428,315.735 314.632,314.713 315.873,313.735 316.932,312.552 318.049,311.443 319.258,310.424 320.323,309.262 321.276,308.004 322.455,306.933 323.402,305.669 324.178,304.286 324.895,302.875 325.793,301.589 326.527,300.202 327.34,298.875 327.946,297.442 328.687,296.06 329.158,294.57 329.753,293.116 330.284,291.633 330.537,290.081 330.921,288.558 331.201,287.014 331.119,285.421 331.521,283.893 331.387,282.31 331.493,280.751 331.496,279.187 331.705,277.63 331.855,276.067 331.725,274.501 331.857,272.934 331.732,271.37 331.528,269.813 331.554,268.243 331.357,266.688 331.043,265.142 330.928,263.579 331.121,261.979 330.711,260.448 330.355,258.915 330.169,257.359 330.273,255.755 329.916,254.227 329.399,252.731 329.377,251.141 328.915,249.636 328.554,248.111 328.099,246.61 327.779,245.077 327.571,243.512 327.018,242.042 326.206,240.667 325.694,239.2 325.063,237.787 324.7,236.207 323.639,235.028 322.558,233.874 321.746,232.513 320.728,231.309 319.735,230.076 318.688,228.885 317.26,228.107 316.157,226.98 314.811,226.168 313.626,225.102 312.175,224.473 310.773,223.736 309.253,223.299 307.662,223.265 306.122,223.053 304.556,222.855 302.997,223.059 301.477,223.447 299.917,223.676 298.448,224.24 296.951,224.725 295.505,225.344 294.06,225.959 292.736,226.842 291.18,227.204 289.823,228.039 288.326,228.559 286.723,228.545 285.204,228.469 283.625,228.433 282.309,227.579 280.836,227.115 279.377,226.621 277.841,226.396 276.342,226.076 274.876,225.611 273.384,225.22 271.854,225.039 270.296,225.192 268.784,224.78 267.245,224.976 265.713,224.953 264.18,225.012 262.653,225.155 261.127,225.345 259.61,225.627 258.196,226.3 256.657,226.51 255.229,227.07 253.793,227.609 252.373,228.18 250.912,228.657 249.537,229.346 248.032,229.494 246.564,229.314 245.135,228.796 243.894,227.871 242.383,227.318 241.271,226.172 239.861,225.485 "
   id="polygon1" />
	</g>
	<g
   id="g4">
		<g
   id="g3">
			<g
   id="g2">
				<polygon
   points="192.914,322.08 194.448,322.333 195.943,322.78 197.49,322.969 198.988,323.405 200.479,323.896 202.077,323.797 203.587,324.184 205.072,324.724 206.619,324.909 208.167,325.079 209.729,325.152 211.277,325.305 212.781,325.773 214.351,325.772 215.884,326.037 217.418,326.301 218.974,326.382 220.504,326.701 222.072,326.645 223.622,326.765 225.134,327.348 226.696,327.334 228.263,327.23 229.822,327.198 231.353,327.699 232.914,327.653 234.476,327.458 236.028,327.591 237.58,327.843 239.137,327.63 240.693,327.752 242.252,327.903 243.798,327.481 245.364,327.743 246.912,327.525 248.458,327.323 250.014,327.279 251.565,327.176 253.112,327.004 254.658,326.836 256.234,326.911 257.77,326.646 259.272,326.162 260.807,325.918 262.376,325.869 263.896,325.532 265.37,324.974 266.937,324.873 268.469,324.595 269.972,324.188 271.52,323.957 272.911,323.148 274.441,322.853 276.013,322.674 277.387,321.864 278.934,321.589 280.333,320.88 281.78,320.318 283.202,319.69 284.663,319.159 286.177,318.749 287.589,318.095 288.885,317.196 290.376,316.71 291.791,316.058 293.117,315.236 294.442,314.357 295.526,313.197 296.155,311.691 295.467,310.232 294.531,309.012 293.254,307.997 291.626,307.824 290.015,307.935 288.57,308.645 287.124,309.262 285.829,310.18 284.406,310.847 282.827,311.161 281.459,311.942 280.028,312.584 278.508,313 277.16,313.875 275.586,314.128 274.173,314.853 272.609,315.106 271.083,315.468 269.538,315.75 268.044,316.223 266.517,316.564 265.073,317.301 263.502,317.456 261.942,317.643 260.423,318.062 258.864,318.25 257.283,318.261 255.738,318.524 254.199,318.872 252.63,318.94 251.064,319.03 249.508,319.25 247.927,319.036 246.375,319.385 244.81,319.543 243.234,319.167 241.67,319.27 240.105,319.174 238.532,319.61 236.963,319.547 235.402,319.294 233.842,319.111 232.261,319.312 230.713,318.959 229.162,318.699 227.583,318.789 226.034,318.527 224.444,318.676 222.92,318.183 221.321,318.372 219.761,318.198 218.201,318.021 216.658,317.722 215.165,317.099 213.583,317.078 212.042,316.781 210.493,316.542 208.953,316.249 207.435,315.831 205.89,315.567 204.331,315.381 202.777,315.159 201.252,314.781 199.648,314.798 198.111,314.482 196.619,313.954 195.066,313.718 193.57,313.21 192.043,312.852 190.496,312.592 188.921,312.443 187.445,311.882 185.933,311.503 184.324,311.712 182.807,312.08 181.29,312.667 180.04,313.746 179.47,315.291 179.179,316.798 179.302,318.462 180.814,319.196 182.219,320.13 182.268,319.869 183.783,320.209 185.313,320.485 186.787,321.009 188.298,321.373 189.828,321.653 191.375,321.849 "
   id="polygon2" />
			</g>
		</g>
	</g>
	<g
   id="g7">
		<g
   id="g6">
			<g
   id="g5">
				<polygon
   points="210.63,245.154 210.308,246.68 209.542,248.032 209.239,249.542 208.846,251.025 208.538,252.534 208.481,254.073 208.354,255.614 208.836,257.115 208.981,258.629 209.398,260.092 209.787,261.562 210.059,263.115 210.81,264.471 211.816,265.656 212.859,266.779 213.739,268.045 214.964,268.978 216.26,269.539 217.711,269.41 219.161,269.263 220.583,268.905 222.122,268.803 223.353,267.902 224.783,267.394 225.8,266.271 225.729,264.989 224.646,263.862 223.678,262.645 222.766,261.389 222.108,259.986 221.059,258.753 220.937,257.145 220.3,255.701 219.981,254.16 220.13,252.584 219.969,251.017 220.155,249.458 220.758,247.987 220.87,246.405 221.604,245.01 221.893,243.435 222.889,242.187 223.671,240.845 224.392,239.447 225.483,238.319 226.357,237 227.729,236.175 227.998,234.616 226.51,233.74 224.758,233.511 223.113,233.983 221.523,234.488 219.921,234.931 218.437,235.684 217.089,236.743 216.884,236.431 215.975,237.707 214.706,238.628 213.807,239.889 213.099,241.272 212.108,242.456 211.29,243.762 "
   id="polygon4" />
			</g>
		</g>
	</g>
	<g
   id="g10">
		<g
   id="g9">
			<g
   id="g8">
				<polygon
   points="229.415,252.383 230.992,251.668 232.495,250.836 233.669,249.592 234.365,248.323 233.23,247.506 231.992,247.099 230.675,246.527 229.208,246.617 227.741,246.667 226.274,246.714 224.808,246.526 223.341,246.841 221.656,246.897 219.957,247.089 218.384,247.761 216.764,248.392 215.584,249.679 215.274,250.978 215.995,252.021 217.274,252.551 218.674,252.582 218.658,252.763 220.125,252.613 221.591,252.44 223.058,252.629 224.524,252.775 225.991,252.845 227.705,252.638 "
   id="polygon7" />
			</g>
		</g>
	</g>
	<g
   id="g13">
		<g
   id="g12">
			<g
   id="g11">
				<polygon
   points="234.104,237.771 235.588,236.997 237.042,236.112 237.156,234.699 235.759,234.099 234.121,233.714 232.455,233.773 230.788,233.746 229.121,233.917 227.455,233.797 225.762,233.832 224.075,234.085 222.532,234.824 221.035,235.6 219.758,236.686 219.373,238.091 220.903,238.587 222.503,238.943 222.544,239.087 224.211,239.114 225.878,238.909 227.544,239.069 229.211,239.05 230.862,238.565 232.47,238.146 "
   id="polygon10" />
			</g>
		</g>
	</g>
	<g
   id="g16">
		<g
   id="g15">
			<g
   id="g14">
				<polygon
   points="288.231,250.168 288.182,251.698 287.963,253.226 288.011,254.755 288.162,256.288 288.052,257.815 287.988,259.344 288.083,260.875 288.488,262.42 290.082,262.76 291.63,262.686 293.259,262.804 294.741,262.163 296.151,261.329 296.459,259.79 296.501,258.169 296.727,256.552 296.871,254.936 296.614,253.312 296.894,251.697 297.054,250.078 296.836,248.458 296.938,246.837 296.59,245.228 296.847,243.596 296.371,242.005 296.209,240.401 295.999,238.802 295.852,237.194 295.121,235.794 293.473,235.702 291.877,235.791 290.336,236.224 288.875,236.888 287.536,237.864 287.088,239.489 287.214,239.515 287.302,241.043 287.568,242.547 287.687,244.068 288.2,245.568 288.11,247.107 288.052,248.64 "
   id="polygon13" />
			</g>
		</g>
	</g>
	<g
   id="g19">
		<g
   id="g18">
			<g
   id="g17">
				<polygon
   points="298.167,248.445 299.304,249.485 300.336,250.638 301.587,251.531 302.772,252.505 304.144,253.277 305.512,252.76 306.477,251.625 307.61,250.552 308.462,249.279 309.313,248.001 310.102,246.671 310.966,245.396 312.1,244.322 312.871,242.971 313.87,241.794 314.886,240.632 315.778,239.372 316.882,238.285 317.714,237.217 316.302,237.379 314.711,236.979 313.139,237.166 311.57,237.432 310.163,237.532 309.96,238.984 310.247,240.554 310.681,242.103 310.788,243.691 310.774,245.298 311.218,246.841 311.327,248.432 311.403,250.031 312.039,251.538 311.994,253.158 312.415,254.699 312.814,256.242 313.047,257.816 313.328,259.381 314.303,260.604 315.864,260.988 317.53,261.137 319.125,260.633 320.463,259.654 321.591,258.549 322.109,257.035 321.75,255.485 321.196,253.971 321.131,252.366 320.92,250.789 320.61,249.229 320.511,247.634 319.853,246.128 319.755,244.534 319.813,242.92 319.251,241.392 319.283,239.785 318.897,238.229 318.7,236.65 318.472,235.073 317.848,233.934 316.472,233.376 314.949,233.524 313.55,234.152 312.07,234.506 310.769,235.29 309.73,236.683 308.679,238.057 307.637,239.441 306.793,240.378 306.351,241.594 305.03,242.849 305.56,243.74 304.176,242.841 302.991,241.82 301.723,240.889 300.654,239.731 299.338,238.836 298.188,237.771 297.201,236.494 295.587,236.192 294.009,236.357 292.427,236.632 291.155,237.636 289.766,238.409 289.487,239.858 290.232,241.142 290.264,241.092 291.501,242.015 292.707,242.985 293.687,244.189 294.75,245.305 295.859,246.377 297.025,247.402 "
   id="polygon16" />
			</g>
		</g>
	</g>
	<g
   id="g22">
		<g
   id="g21">
			<g
   id="g20">
				<polygon
   points="208.905,300.607 210.447,301.006 210.446,300.952 212.052,300.776 213.465,299.982 214.174,298.842 212.886,298.588 211.378,298.812 209.991,299.55 "
   id="polygon19" />
			</g>
		</g>
	</g>
	<g
   id="g25">
		<g
   id="g24">
			<g
   id="g23">
				<polygon
   points="267.925,299.376 268.46,300.16 268.455,300.427 269.933,299.845 271.37,299.33 272.782,298.677 272.211,297.978 270.695,298.046 269.345,298.775 "
   id="polygon22" />
			</g>
		</g>
	</g>
	<g
   id="g27">
		<g
   id="g26">
			<path
   style="fill:#050606"
   d="m 241.429,200.041 c 1.998,2.317 3.995,4.634 5.993,6.951 0.568,0.659 3.048,-0.602 2.897,-0.776 -1.998,-2.317 -3.995,-4.634 -5.993,-6.951 -0.568,-0.66 -3.048,0.601 -2.897,0.776 z"
   id="path25" />
		</g>
	</g>
	<g
   id="g29">
		<g
   id="g28">
			<path
   style="fill:#050606"
   d="m 269.772,205.831 c -0.03,-2.333 -0.061,-4.667 -0.09,-7 -0.017,-1.274 -2.917,-0.664 -2.904,0.339 0.03,2.333 0.06,4.667 0.09,7 0.017,1.274 2.917,0.663 2.904,-0.339 z"
   id="path27" />
		</g>
	</g>
	<g
   id="g31">
		<g
   id="g30">
			<path
   style="fill:#050606"
   d="m 287.708,209.312 c 2.409,-2.771 4.817,-5.542 7.226,-8.312 0.659,-0.757 -2.155,-0.406 -2.641,0.152 -2.409,2.771 -4.817,5.542 -7.226,8.312 -0.658,0.758 2.156,0.406 2.641,-0.152 z"
   id="path29" />
		</g>
	</g>
</g>
</svg>
